<?xml version="1.0" encoding="UTF-8"?>
<svg id="Layer_1" xmlns="http://www.w3.org/2000/svg" version="1.1" viewBox="0 0 633.6 246.48">
  <!-- Generator: Adobe Illustrator 29.4.0, SVG Export Plug-In . SVG Version: 2.1.0 Build 37)  -->
  <defs>
    <style>
      .st0 {
        fill: #231f20;
      }

      .st1 {
        fill: #fff;
      }

      .st2 {
        fill: #00a79d;
      }
    </style>
  </defs>
  <circle class="st0" cx="145" cy="123.47" r="110.92"/>
  <circle class="st2" cx="136.17" cy="123.47" r="110.92"/>
  <g>
    <path class="st1" d="M48.56,159.8v-2l7.7-2.7v-57.6l-7.7-2.7v-2h18v67h-18ZM102.86,111.85l-2.5.55-9.05-15.9,3.15,1.45h-33.85v-5.15h32l5.75-2.7h1l3.5,21.75ZM89.86,111.55v26.2h-4.05l-1.1-10.55h-24.1v-5.1h24.1l1.1-10.55h4.05ZM92.46,156.25l9.85-16.25,2.2.55-3.8,22.4h-1.1l-6.05-3.15h-32.95v-5.15h34.35l-2.5,1.6Z"/>
    <path class="st1" d="M162.46,97.95h-52.1l5.15-1.2-7.35,14.75-2.55-.5,2-21.65h1.2l7.5,4.35-4.8-.9h49.8l-4.2.9,7.5-4.35h1.2l2,21.65-2.55.5-7.35-14.75,4.55,1.2ZM131.46,95.9h10.3v59.2l7.7,2.7v2h-25.7v-2l7.7-2.7v-59.2Z"/>
    <path class="st1" d="M169.7,159.8v-2l7.7-2.7v-57.6l-7.7-2.7v-2h18v67h-18ZM224,111.85l-2.5.55-9.05-15.9,3.15,1.45h-33.85v-5.15h32l5.75-2.7h1l3.5,21.75ZM211,111.55v26.2h-4.05l-1.1-10.55h-24.1v-5.1h24.1l1.1-10.55h4.05ZM213.6,156.25l9.85-16.25,2.2.55-3.8,22.4h-1.1l-6.05-3.15h-32.95v-5.15h34.35l-2.5,1.6Z"/>
  </g>
  <g>
    <path class="st0" d="M316.9,120.62c0-3.62-1.29-6.63-3.86-9.03-2.58-2.4-6.35-3.6-11.32-3.6-3.88,0-7.19.96-9.92,2.88-2.73,1.92-4.79,4.64-6.19,8.15s-2.09,7.67-2.09,12.47.77,8.87,2.32,12.21,3.7,5.87,6.45,7.59c2.75,1.72,5.93,2.59,9.56,2.59,3.36,0,6.58-.53,9.66-1.6,3.08-1.07,6.08-2.74,9-5.01v4.65c-3.14,1.88-5.8,3.42-7.99,4.61-2.18,1.2-4.1,2.12-5.76,2.75-1.66.63-3.2,1.07-4.62,1.31-1.42.24-2.91.36-4.48.36-5.46,0-10.06-1.11-13.81-3.34-3.75-2.23-6.59-5.32-8.51-9.29-1.92-3.97-2.88-8.53-2.88-13.68s.82-9.5,2.45-13.45c1.64-3.95,3.88-7.31,6.74-10.08,2.86-2.77,6.13-4.89,9.82-6.35,3.69-1.46,7.58-2.19,11.68-2.19,2.09,0,4.15.17,6.15.52,2.01.35,4.08.88,6.22,1.6,2.14.72,4.43,1.69,6.87,2.91l-5.5,3.73v-33.25c-.52-.65-1.2-1.26-2.03-1.83s-1.78-1.12-2.85-1.67c-1.07-.54-2.24-1.08-3.5-1.6v-1.18l17.28-5.04h1.24l-.59,10.6v73.11c.39.44.92.86,1.57,1.28.65.42,1.37.82,2.16,1.21.79.39,1.57.72,2.36.98s1.53.44,2.23.52v1.96l-15.64,4.25h-1.31l-.92-9.95v-30.11Z"/>
    <path class="st0" d="M358.99,102.55l-.39,10.6v40.91l10.15,3.14v2.42h-29.65v-2.42l9.95-3.14v-39.34c-.48-.52-1.23-1.1-2.26-1.73-1.03-.63-2.18-1.25-3.47-1.87-1.29-.61-2.61-1.11-3.96-1.51v-2.03l18.46-5.04h1.18ZM353.16,82.32c-2.31,0-4.2-.75-5.66-2.26-1.46-1.51-2.19-3.35-2.19-5.53s.73-4.03,2.19-5.53c1.46-1.51,3.35-2.26,5.66-2.26s4.2.75,5.66,2.26,2.19,3.35,2.19,5.53-.73,4.03-2.19,5.53c-1.46,1.5-3.35,2.26-5.66,2.26Z"/>
    <path class="st0" d="M397.02,194.32c-4.15,0-7.86-.34-11.13-1.01-3.27-.68-6.04-1.67-8.31-2.98-2.27-1.31-3.99-2.91-5.17-4.81s-1.77-4.09-1.77-6.58c0-1.75.46-3.4,1.38-4.97s2.35-3.03,4.29-4.39,4.41-2.58,7.4-3.7c2.99-1.11,6.58-2.11,10.77-2.98h3.34v1.57c-4.49.74-8.03,1.78-10.6,3.11-2.58,1.33-4.4,2.89-5.46,4.68-1.07,1.79-1.61,3.75-1.61,5.89,0,2.4.64,4.47,1.93,6.22,1.29,1.75,3.27,3.08,5.96,3.99,2.68.92,6.12,1.37,10.31,1.37s7.63-.61,10.7-1.83c3.08-1.22,5.47-2.86,7.2-4.91,1.72-2.05,2.59-4.28,2.59-6.68,0-1.7-.39-3.14-1.18-4.32-.79-1.18-2.04-2.17-3.76-2.98-1.72-.81-3.99-1.44-6.81-1.9-2.81-.46-6.27-.82-10.38-1.08s-7.47-.78-10.11-1.54c-2.64-.76-4.7-1.72-6.19-2.88-1.48-1.16-2.52-2.45-3.11-3.89-.59-1.44-.88-2.95-.88-4.52,0-2.97,1.38-5.48,4.12-7.53,2.75-2.05,6.46-3.56,11.13-4.52l1.64,1.18c-2.36.31-4.17,1.04-5.43,2.19-1.27,1.16-1.9,2.7-1.9,4.62,0,1.05.19,2,.56,2.85.37.85,1.11,1.6,2.22,2.26,1.11.65,2.8,1.21,5.07,1.67,2.27.46,5.3.82,9.1,1.08s7.24.73,10.34,1.41c3.1.68,5.75,1.65,7.95,2.91,2.2,1.26,3.9,2.86,5.11,4.78,1.2,1.92,1.8,4.25,1.8,7,0,3.67-1.26,7.11-3.76,10.34-2.51,3.23-6.09,5.85-10.73,7.85-4.65,2.01-10.18,3.01-16.59,3.01ZM397.41,143.66c-4.28,0-8.16-.88-11.65-2.65-3.49-1.77-6.25-4.2-8.28-7.3-2.03-3.1-3.04-6.61-3.04-10.54s1.01-7.64,3.04-10.74c2.03-3.1,4.79-5.52,8.28-7.27,3.49-1.74,7.37-2.62,11.65-2.62,3.23,0,6.23.5,9,1.51,2.77,1,5.2,2.43,7.3,4.29,2.09,1.86,3.73,4.03,4.91,6.51,1.18,2.49,1.77,5.22,1.77,8.18,0,4.01-1.01,7.58-3.04,10.7-2.03,3.12-4.78,5.55-8.25,7.3-3.47,1.75-7.36,2.62-11.68,2.62ZM397.94,139.27c3.75,0,6.69-1.38,8.8-4.12,2.12-2.75,3.17-6.57,3.17-11.46,0-5.19-1.19-9.28-3.57-12.27-2.38-2.99-5.53-4.48-9.46-4.48-3.71,0-6.63,1.36-8.77,4.09-2.14,2.73-3.21,6.56-3.21,11.49s1.19,9.23,3.57,12.24,5.53,4.52,9.46,4.52ZM405.46,107.2l-2.09-3.73c2.84.44,5.41.64,7.72.62,2.31-.02,4.42-.15,6.32-.39,1.9-.24,3.68-.49,5.34-.75,1.66-.26,3.23-.39,4.71-.39s2.69.42,3.5,1.24c.81.83,1.21,2.09,1.21,3.8s-.55,2.98-1.64,4.09c-1.09,1.11-2.4,1.67-3.93,1.67-1.22,0-2.39-.32-3.5-.95-1.11-.63-2.39-1.36-3.83-2.19-1.44-.83-3.26-1.55-5.47-2.16s-4.99-.89-8.35-.85Z"/>
    <path class="st0" d="M453.51,102.55l-.39,10.6v40.91l10.15,3.14v2.42h-29.65v-2.42l9.95-3.14v-39.34c-.48-.52-1.23-1.1-2.26-1.73-1.03-.63-2.18-1.25-3.47-1.87-1.29-.61-2.61-1.11-3.96-1.51v-2.03l18.46-5.04h1.18ZM447.68,82.32c-2.31,0-4.2-.75-5.66-2.26-1.46-1.51-2.19-3.35-2.19-5.53s.73-4.03,2.19-5.53c1.46-1.51,3.35-2.26,5.66-2.26s4.2.75,5.66,2.26c1.46,1.51,2.19,3.35,2.19,5.53s-.73,4.03-2.19,5.53c-1.46,1.5-3.35,2.26-5.66,2.26Z"/>
    <path class="st0" d="M483.88,143.92c0,2.92.88,5.12,2.65,6.58s4.29,2.19,7.56,2.19c1.53,0,3.19-.15,4.97-.46,1.79-.3,3.73-.76,5.83-1.38v3.08c-2.53,1.79-4.75,3.17-6.64,4.16-1.9.98-3.61,1.66-5.14,2.03-1.53.37-3.03.56-4.52.56-2.88,0-5.39-.53-7.53-1.6-2.14-1.07-3.8-2.66-4.97-4.78-1.18-2.12-1.77-4.72-1.77-7.82v-33.78l-7.07-4.91v-1.18c.96-.7,1.91-1.41,2.85-2.13.94-.72,1.89-1.45,2.85-2.19.96-.74,1.92-1.49,2.88-2.26l.03-11.35s4.94-4.19,5.99-5.02h2.03v60.26ZM480.15,109.88v-6.02h22.84l-1.05,6.02h-21.8Z"/>
    <path class="st0" d="M544.03,124.09l1.05,4.58c-5.15,1.18-9.36,2.37-12.63,3.57-3.27,1.2-5.83,2.43-7.66,3.7-1.83,1.27-3.11,2.61-3.83,4.03-.72,1.42-1.08,2.98-1.08,4.68,0,2.97.88,5.24,2.65,6.81,1.77,1.57,3.92,2.36,6.45,2.36,2.05,0,3.93-.52,5.63-1.57s3.06-2.42,4.09-4.12c1.03-1.7,1.54-3.53,1.54-5.5v-23.56c0-3.14-.81-5.65-2.42-7.53-1.62-1.88-4.28-2.81-7.99-2.81-1.31,0-2.81.21-4.52.62s-3.36,1.04-4.97,1.87l3.34-3.01c-.13,1.22-.32,2.44-.56,3.67-.24,1.22-.52,2.31-.85,3.27-.33.96-.73,1.7-1.21,2.23-.7.74-1.57,1.29-2.62,1.64-1.05.35-2.09.52-3.14.52-1.35,0-2.42-.32-3.21-.95-.79-.63-1.18-1.43-1.18-2.39,0-1.35.66-2.78,2-4.29,1.33-1.51,3.1-2.92,5.3-4.25,2.2-1.33,4.66-2.41,7.36-3.24,2.71-.83,5.46-1.24,8.25-1.24,3.8,0,6.87.58,9.23,1.73,2.36,1.16,4.07,2.86,5.14,5.11,1.07,2.25,1.6,5.01,1.6,8.28v29.91c0,1.35.2,2.48.59,3.37.39.9.97,1.57,1.73,2.03.76.46,1.71.69,2.85.69,1,0,2.08-.2,3.24-.59,1.16-.39,2.28-.92,3.37-1.57v3.01c-1.79,1.96-3.68,3.4-5.66,4.32-1.99.92-3.83,1.37-5.53,1.37-2.1,0-3.89-.47-5.4-1.41-1.51-.94-2.65-2.29-3.44-4.06-.79-1.77-1.18-3.85-1.18-6.25l.39-.66c-.57,2.44-1.62,4.6-3.17,6.48-1.55,1.88-3.4,3.35-5.56,4.42-2.16,1.07-4.46,1.6-6.91,1.6-4.36,0-7.96-1.22-10.8-3.67-2.84-2.44-4.26-5.96-4.26-10.54,0-2.44.49-4.67,1.47-6.68.98-2.01,2.72-3.89,5.21-5.66,2.49-1.77,5.95-3.49,10.38-5.17,4.43-1.68,10.07-3.39,16.92-5.14Z"/>
    <path class="st0" d="M581.4,154.06l10.15,3.14v2.42h-29.65v-2.42l9.95-3.14v-74.16c-.57-.7-1.31-1.4-2.22-2.09-.92-.7-2.03-1.41-3.34-2.13-1.31-.72-2.82-1.43-4.52-2.13v-1.31l18.98-5.5h1.31l-.65,10.47v76.85Z"/>
  </g>
  <g>
    <path class="st0" d="M434.3,181.37v-.3l1.29-.4v-8.96l-1.29-.4v-.3h2.59v10.36h-2.59ZM442.86,173.93l-.38.07-1.34-2.43.45.16h-5.51v-.73h5.21l.91-.38h.13l.53,3.3ZM440.8,173.91v4.05h-.6l-.18-1.66h-3.95v-.73h3.95l.18-1.66h.6ZM441.28,180.85l1.47-2.42.33.09-.59,3.32h-.13l-.94-.46h-5.36v-.73h5.57l-.37.2Z"/>
    <path class="st0" d="M448.5,176.04v4.67l1.26.37v.29h-3.68v-.29l1.24-.37v-4.56c-.09-.09-.22-.17-.39-.25-.17-.08-.45-.18-.81-.29v-.19l1.98-.79h.17l.24,1.42ZM450.75,181.09l1.26-.37v-3.66c0-.28-.06-.52-.19-.72-.12-.2-.31-.36-.55-.47-.24-.11-.54-.17-.89-.17-.43,0-.83.08-1.19.23-.37.15-.62.33-.76.55l-.32-.25c.29-.29.56-.54.82-.75s.51-.37.76-.49c.25-.12.5-.21.76-.27.26-.06.53-.08.82-.08.66,0,1.14.2,1.46.6.32.4.48,1.03.48,1.9v3.59l1.25.37v.29h-3.7v-.29Z"/>
    <path class="st0" d="M462.72,176.76c0-.43-.16-.78-.48-1.07-.32-.28-.79-.43-1.41-.43-.48,0-.89.11-1.23.34-.34.23-.6.55-.77.96-.17.42-.26.91-.26,1.47s.1,1.05.29,1.44c.19.39.46.69.8.9.34.2.74.31,1.19.31.42,0,.82-.06,1.2-.19.38-.13.76-.32,1.12-.59v.55c-.39.22-.72.4-.99.55-.27.14-.51.25-.72.32-.21.08-.4.13-.57.16s-.36.04-.56.04c-.68,0-1.25-.13-1.72-.39-.47-.26-.82-.63-1.06-1.1-.24-.47-.36-1.01-.36-1.62s.1-1.12.31-1.59c.2-.47.48-.86.84-1.19.35-.33.76-.58,1.22-.75s.94-.26,1.45-.26c.26,0,.52.02.76.06.25.04.51.1.77.19.27.08.55.2.85.34l-.68.44v-3.93c-.07-.08-.15-.15-.25-.22-.1-.07-.22-.13-.35-.2s-.28-.13-.44-.19v-.14l2.15-.59h.15l-.07,1.25v8.64c.05.05.11.1.2.15s.17.1.27.14c.1.05.2.08.29.12s.19.05.28.06v.23l-1.94.5h-.16l-.11-1.18v-3.56Z"/>
    <path class="st0" d="M475.32,179.52c0,.35.11.6.33.78.22.17.53.26.94.26.19,0,.4-.02.62-.05s.46-.09.72-.16v.36c-.31.21-.59.38-.83.49-.24.12-.45.2-.64.24-.19.04-.38.07-.56.07-.36,0-.67-.06-.94-.19-.27-.13-.47-.31-.62-.56-.15-.25-.22-.56-.22-.92v-3.99l-.88-.58v-.14c.12-.08.24-.17.35-.25.12-.08.23-.17.35-.26s.24-.18.36-.27c.12-.09.24-.18.37-.27.12-.09.25-.19.38-.29h.25v5.75ZM474.86,175.49v-.71h2.84l-.13.71h-2.71Z"/>
    <path class="st0" d="M484.15,181.53c-.68,0-1.29-.14-1.81-.43s-.93-.68-1.22-1.19-.44-1.09-.44-1.75.15-1.29.46-1.82c.31-.53.72-.95,1.25-1.25.53-.3,1.13-.46,1.8-.46s1.29.14,1.81.43.93.68,1.22,1.19c.29.51.44,1.09.44,1.76s-.15,1.29-.46,1.82-.72.95-1.25,1.25c-.53.3-1.13.46-1.8.46ZM484.2,180.93c.41,0,.77-.09,1.09-.28.32-.19.57-.48.76-.87.18-.39.28-.9.28-1.51,0-.66-.09-1.22-.27-1.67s-.44-.79-.76-1.02-.71-.35-1.15-.35c-.41,0-.77.09-1.09.28-.32.19-.57.48-.76.87-.18.39-.28.9-.28,1.51,0,.66.09,1.21.27,1.66.18.45.44.8.76,1.03.33.23.71.35,1.14.35Z"/>
    <path class="st0" d="M496.58,181.37v-.3l1.29-.4v-8.96l-1.29-.4v-.3h2.59v10.36h-2.59ZM505.14,173.93l-.38.07-1.34-2.43.45.16h-5.51v-.73h5.21l.91-.38h.13l.53,3.3ZM503.08,173.91v4.05h-.6l-.18-1.66h-3.95v-.73h3.95l.18-1.66h.6ZM503.56,180.85l1.47-2.42.33.09-.59,3.32h-.13l-.94-.46h-5.36v-.73h5.57l-.37.2Z"/>
    <path class="st0" d="M510.79,176.04v4.67l1.26.37v.29h-3.68v-.29l1.24-.37v-4.56c-.09-.09-.22-.17-.39-.25-.17-.08-.45-.18-.81-.29v-.19l1.98-.79h.17l.24,1.42ZM513.03,181.09l1.26-.37v-3.66c0-.28-.06-.52-.19-.72-.12-.2-.31-.36-.55-.47-.24-.11-.54-.17-.89-.17-.43,0-.83.08-1.19.23-.37.15-.62.33-.76.55l-.32-.25c.29-.29.56-.54.82-.75s.51-.37.76-.49c.25-.12.5-.21.76-.27.26-.06.53-.08.82-.08.66,0,1.14.2,1.46.6.32.4.48,1.03.48,1.9v3.59l1.25.37v.29h-3.7v-.29Z"/>
    <path class="st0" d="M525.01,176.76c0-.43-.16-.78-.48-1.07-.32-.28-.79-.43-1.41-.43-.48,0-.89.11-1.23.34-.34.23-.6.55-.77.96-.17.42-.26.91-.26,1.47s.1,1.05.29,1.44c.19.39.46.69.8.9.34.2.74.31,1.19.31.42,0,.82-.06,1.2-.19.38-.13.76-.32,1.12-.59v.55c-.39.22-.72.4-.99.55-.27.14-.51.25-.72.32-.21.08-.4.13-.57.16s-.36.04-.56.04c-.68,0-1.25-.13-1.72-.39-.47-.26-.82-.63-1.06-1.1-.24-.47-.36-1.01-.36-1.62s.1-1.12.31-1.59c.2-.47.48-.86.84-1.19.35-.33.76-.58,1.22-.75s.94-.26,1.45-.26c.26,0,.52.02.76.06.25.04.51.1.77.19.27.08.55.2.85.34l-.68.44v-3.93c-.07-.08-.15-.15-.25-.22-.1-.07-.22-.13-.35-.2s-.28-.13-.44-.19v-.14l2.15-.59h.15l-.07,1.25v8.64c.05.05.11.1.2.15s.17.1.27.14c.1.05.2.08.29.12s.19.05.28.06v.23l-1.94.5h-.16l-.11-1.18v-3.56Z"/>
    <path class="st0" d="M535.81,181.37v-.3l1.29-.4v-8.96l-1.29-.4v-.3h2.59v10.36h-2.59ZM545.09,176.05c0-1.46-.48-2.55-1.43-3.26-.95-.71-2.25-1.06-3.91-1.06h-2.17v-.73h2.57c1.42,0,2.6.18,3.54.53.94.36,1.64.89,2.11,1.62.47.72.7,1.63.7,2.72,0,1.16-.28,2.15-.83,2.97-.55.82-1.31,1.44-2.27,1.88-.96.43-2.04.65-3.24.65h-2.59v-.73h2.35c1.03,0,1.93-.16,2.71-.47.77-.31,1.38-.81,1.81-1.48.43-.68.65-1.55.65-2.64Z"/>
    <path class="st0" d="M552.18,174.63l-.05,1.25v4.83l1.26.37v.29h-3.69v-.29l1.24-.37v-4.65c-.06-.06-.15-.13-.28-.21-.13-.07-.27-.15-.43-.22-.16-.07-.32-.13-.49-.18v-.24l2.29-.6h.15ZM551.45,172.24c-.29,0-.52-.09-.7-.27s-.27-.4-.27-.65.09-.48.27-.65.42-.27.7-.27.52.09.7.27.27.4.27.65-.09.48-.27.65-.42.27-.7.27Z"/>
    <path class="st0" d="M559.07,185.47c-.52,0-.98-.04-1.38-.12-.41-.08-.75-.2-1.03-.35-.28-.15-.5-.34-.64-.57-.15-.22-.22-.48-.22-.78,0-.21.06-.4.17-.59.11-.19.29-.36.53-.52.24-.16.55-.31.92-.44.37-.13.82-.25,1.34-.35h.42v.19c-.56.09-1,.21-1.32.37s-.55.34-.68.55c-.13.21-.2.44-.2.7,0,.28.08.53.24.74s.41.36.74.47c.33.11.76.16,1.28.16s.95-.07,1.33-.22c.38-.14.68-.34.89-.58.21-.24.32-.5.32-.79,0-.2-.05-.37-.15-.51-.1-.14-.25-.26-.47-.35-.21-.1-.5-.17-.85-.22-.35-.05-.78-.1-1.29-.13s-.93-.09-1.26-.18-.58-.2-.77-.34c-.18-.14-.31-.29-.39-.46-.07-.17-.11-.35-.11-.53,0-.35.17-.65.51-.89.34-.24.8-.42,1.38-.53l.2.14c-.29.04-.52.12-.67.26-.16.14-.24.32-.24.55,0,.12.02.24.07.34s.14.19.28.27c.14.08.35.14.63.2.28.05.66.1,1.13.13.47.03.9.09,1.29.17.38.08.71.2.99.34.27.15.49.34.63.56.15.23.22.5.22.83,0,.43-.16.84-.47,1.22-.31.38-.76.69-1.33.93-.58.24-1.27.36-2.06.36ZM559.12,179.49c-.53,0-1.01-.1-1.45-.31s-.78-.5-1.03-.86-.38-.78-.38-1.25.13-.9.38-1.27.6-.65,1.03-.86c.43-.21.92-.31,1.45-.31.4,0,.77.06,1.12.18.34.12.65.29.91.51.26.22.46.48.61.77s.22.62.22.97c0,.47-.13.9-.38,1.26-.25.37-.59.66-1.02.86-.43.21-.92.31-1.45.31ZM559.18,178.97c.47,0,.83-.16,1.09-.49.26-.33.39-.78.39-1.35,0-.61-.15-1.1-.44-1.45s-.69-.53-1.18-.53c-.46,0-.82.16-1.09.48s-.4.78-.4,1.36.15,1.09.44,1.45c.29.36.69.53,1.17.53ZM560.12,175.18l-.26-.44c.35.05.67.08.96.07.29,0,.55-.02.79-.05.24-.03.46-.06.66-.09.21-.03.4-.05.59-.05s.33.05.43.15c.1.1.15.25.15.45,0,.19-.07.35-.2.48-.14.13-.3.2-.49.2-.15,0-.3-.04-.43-.11-.14-.08-.3-.16-.48-.26-.18-.1-.41-.18-.68-.25-.27-.07-.62-.11-1.04-.1Z"/>
    <path class="st0" d="M568.25,174.63l-.05,1.25v4.83l1.26.37v.29h-3.69v-.29l1.24-.37v-4.65c-.06-.06-.15-.13-.28-.21-.13-.07-.27-.15-.43-.22-.16-.07-.32-.13-.49-.18v-.24l2.29-.6h.15ZM567.53,172.24c-.29,0-.52-.09-.7-.27s-.27-.4-.27-.65.09-.48.27-.65.42-.27.7-.27.52.09.7.27.27.4.27.65-.09.48-.27.65-.42.27-.7.27Z"/>
    <path class="st0" d="M574.19,179.52c0,.35.11.6.33.78.22.17.53.26.94.26.19,0,.4-.02.62-.05s.46-.09.72-.16v.36c-.31.21-.59.38-.83.49-.24.12-.45.2-.64.24-.19.04-.38.07-.56.07-.36,0-.67-.06-.94-.19-.27-.13-.47-.31-.62-.56-.15-.25-.22-.56-.22-.92v-3.99l-.88-.58v-.14c.12-.08.24-.17.35-.25.12-.08.23-.17.35-.26s.24-.18.36-.27c.12-.09.24-.18.37-.27.12-.09.25-.19.38-.29h.25v5.75ZM573.73,175.49v-.71h2.84l-.13.71h-2.71Z"/>
    <path class="st0" d="M583.83,177.17l.13.54c-.64.14-1.16.28-1.57.42-.41.14-.72.29-.95.44s-.39.31-.48.48c-.09.17-.13.35-.13.55,0,.35.11.62.33.8s.49.28.8.28c.25,0,.49-.06.7-.19.21-.12.38-.29.51-.49.13-.2.19-.42.19-.65v-2.78c0-.37-.1-.67-.3-.89-.2-.22-.53-.33-.99-.33-.16,0-.35.02-.56.07-.21.05-.42.12-.62.22l.42-.36c-.02.14-.04.29-.07.43-.03.14-.06.27-.11.39-.04.11-.09.2-.15.26-.09.09-.2.15-.33.19-.13.04-.26.06-.39.06-.17,0-.3-.04-.4-.11-.1-.07-.15-.17-.15-.28,0-.16.08-.33.25-.51.17-.18.38-.34.66-.5.27-.16.58-.29.92-.38.34-.1.68-.15,1.02-.15.47,0,.85.07,1.15.21s.51.34.64.6.2.59.2.98v3.53c0,.16.02.29.07.4s.12.19.22.24c.09.05.21.08.35.08.12,0,.26-.02.4-.07.14-.05.28-.11.42-.19v.36c-.22.23-.46.4-.7.51s-.48.16-.69.16c-.26,0-.48-.06-.67-.17-.19-.11-.33-.27-.43-.48s-.15-.46-.15-.74l.05-.08c-.07.29-.2.54-.39.77-.19.22-.42.4-.69.52-.27.13-.55.19-.86.19-.54,0-.99-.14-1.34-.43s-.53-.7-.53-1.25c0-.29.06-.55.18-.79s.34-.46.65-.67c.31-.21.74-.41,1.29-.61.55-.2,1.25-.4,2.1-.61Z"/>
    <path class="st0" d="M590.64,180.72l1.26.37v.29h-3.69v-.29l1.24-.37v-8.76c-.07-.08-.16-.16-.28-.25-.11-.08-.25-.17-.42-.25-.16-.09-.35-.17-.56-.25v-.15l2.36-.65h.16l-.08,1.24v9.08Z"/>
  </g>
  <path class="st2" d="M428,85.31l20.76-12.27-8.09,22.42s-3.12-8.8-12.67-10.15Z"/>
</svg>